<svg width="512" height="512" viewBox="0 0 32 32" xmlns="http://www.w3.org/2000/svg"><g transform="translate(16,16)"><path d="M 0 -14 A 14 14 0 0 1 14 0 L 8 0 A 8 8 0 0 0 0 -8 Z" fill="#84cc16" transform="rotate(0)"/><path d="M 0 -14 A 14 14 0 0 1 14 0 L 8 0 A 8 8 0 0 0 0 -8 Z" fill="#22d3ee" transform="rotate(90)"/><path d="M 0 -14 A 14 14 0 0 1 14 0 L 8 0 A 8 8 0 0 0 0 -8 Z" fill="#f87171" transform="rotate(180)"/><path d="M 0 -14 A 14 14 0 0 1 14 0 L 8 0 A 8 8 0 0 0 0 -8 Z" fill="#fbbf24" transform="rotate(270)"/></g></svg>